<svg xmlns="http://www.w3.org/2000/svg" viewBox="0 0 64 64" width="64" height="64">
  <rect width="64" height="64" rx="14" fill="#0f172a" />
  <circle cx="32" cy="30" r="18" fill="#fff" />
  <circle cx="32" cy="30" r="14" fill="#0f172a" />
  <path d="M32 12 L24 22 L27 32 L20 40 L30 42 L32 32 Z" fill="#fff" />
  <path d="M32 12 L40 22 L37 32 L44 40 L34 42 L32 32 Z" fill="#fff" />
  <path d="M18 28 L26 28 L30 35 L26 42 L18 35 Z" fill="#fff" />
  <path d="M46 28 L38 28 L34 35 L38 42 L46 35 Z" fill="#fff" />
  <path d="M26 12 L38 12 L44 20 L38 28 L26 28 L20 20 Z" fill="#0f172a" />
  <circle cx="32" cy="30" r="4" fill="#fff" />
</svg>
